{"accessors":[{"bufferView":0,"byteOffset":0,"componentType":5126,"count":5849,"max":[-26945.46875,18134.0,816.9375],"min":[-28225.0,16855.0,-24.96875],"type":"VEC3"},{"bufferView":1,"byteOffset":0,"componentType":5125,"count":5849,"type":"SCALAR"}],"asset":{"generator":"VTK","version":"2.0"},"bufferViews":[{"buffer":0,"byteLength":70188,"byteOffset":0,"target":34962},{"buffer":1,"byteLength":23396,"byteOffset":0,"target":34963}],"buffers":[{"byteLength":70188,"uri":"data:application/octet-stream;base64,"},{"byteLength":23396,"uri":"data:application/octet-stream;base64,"}],"cameras":[{"perspective":{"aspectRatio":1.0298507462686568,"yfov":0.5235987755982988,"zfar":6371.712666380016,"znear":1862.9497296501975},"type":"perspective"}],"materials":[{"pbrMetallicRoughness":{"baseColorFactor":[1.0,1.0,1.0,0.3],"metallicFactor":0.0,"roughnessFactor":1.0}}],"meshes":[{"name":"mesh0","primitives":[{"attributes":{"POSITION":0},"indices":1,"material":0,"mode":0}]}],"nodes":[{"matrix":[0.0,0.0,1.0000000000000004,0.0,1.0000000000000004,0.0,0.0,0.0,0.0,1.0000000000000004,0.0,0.0,0.0,0.0,0.0,1.0],"mesh":0,"name":"mesh0"},{"camera":0,"matrix":[-0.7071067811865475,0.7071067811865475,0.0,-0.0,-0.40824829046386313,-0.40824829046386313,0.8164965809277257,0.0,0.5773502691896256,0.5773502691896256,0.577350269189626,-0.0,-25359.591649006445,19720.142725993544,2621.62710099355,1.0],"name":"Camera Node"},{"children":[0,1],"name":"Renderer Node"}],"scene":0,"scenes":[{"name":"Layer 0","nodes":[2]}]}