{"accessors":[{"bufferView":0,"byteOffset":0,"componentType":5126,"count":1,"max":[-27312.28125,17791.09375,835.25],"min":[-27312.28125,17791.09375,835.25],"type":"VEC3"},{"bufferView":1,"byteOffset":0,"componentType":5125,"count":1,"type":"SCALAR"}],"asset":{"generator":"VTK","version":"2.0"},"bufferViews":[{"buffer":0,"byteLength":12,"byteOffset":0,"target":34962},{"buffer":1,"byteLength":4,"byteOffset":0,"target":34963}],"buffers":[{"byteLength":12,"uri":"data:application/octet-stream;base64,"},{"byteLength":4,"uri":"data:application/octet-stream;base64,"}],"cameras":[{"perspective":{"aspectRatio":1.0298507462686568,"yfov":0.5235987755982988,"zfar":2.0904977689651965,"znear":1.8095231561033045},"type":"perspective"}],"materials":[{"pbrMetallicRoughness":{"baseColorFactor":[1.0,1.0,1.0,0.3],"metallicFactor":0.0,"roughnessFactor":1.0}}],"meshes":[{"name":"mesh0","primitives":[{"attributes":{"POSITION":0},"indices":1,"material":0,"mode":0}]}],"nodes":[{"matrix":[0.0,0.0,1.0000000000000004,0.0,1.0000000000000004,0.0,0.0,0.0,0.0,1.0000000000000004,0.0,0.0,0.0,0.0,0.0,1.0],"mesh":0,"name":"mesh0"},{"camera":0,"matrix":[-0.7071067811865476,0.7071067811865476,0.0,-0.0,-0.40824829046353006,-0.40824829046353006,0.8164965809280589,0.0,0.5773502691898612,0.5773502691898612,0.577350269189155,-0.0,-27311.165894928352,17792.20910507165,836.3653550716514,1.0],"name":"Camera Node"},{"children":[0,1],"name":"Renderer Node"}],"scene":0,"scenes":[{"name":"Layer 0","nodes":[2]}]}