{"accessors":[{"bufferView":0,"byteOffset":0,"componentType":5126,"count":5886,"max":[-26945.0625,18132.875,1180.78125],"min":[-28225.0,16855.1875,-24.90625],"type":"VEC3"},{"bufferView":1,"byteOffset":0,"componentType":5125,"count":5886,"type":"SCALAR"}],"asset":{"generator":"VTK","version":"2.0"},"bufferViews":[{"buffer":0,"byteLength":70632,"byteOffset":0,"target":34962},{"buffer":1,"byteLength":23544,"byteOffset":0,"target":34963}],"buffers":[{"byteLength":70632,"uri":"data:application/octet-stream;base64,"},{"byteLength":23544,"uri":"data:application/octet-stream;base64,"}],"cameras":[{"perspective":{"aspectRatio":1.0298507462686568,"yfov":0.5235987755982988,"zfar":6983.3692689728105,"znear":1995.1394188790973},"type":"perspective"}],"materials":[{"pbrMetallicRoughness":{"baseColorFactor":[1.0,1.0,1.0,0.3],"metallicFactor":0.0,"roughnessFactor":1.0}}],"meshes":[{"name":"mesh0","primitives":[{"attributes":{"POSITION":0},"indices":1,"material":0,"mode":0}]}],"nodes":[{"matrix":[0.0,0.0,1.0000000000000004,0.0,1.0000000000000004,0.0,0.0,0.0,0.0,1.0000000000000004,0.0,0.0,0.0,0.0,0.0,1.0],"mesh":0,"name":"mesh0"},{"camera":0,"matrix":[-0.7071067811865476,0.7071067811865476,0.0,-0.0,-0.40824829046386313,-0.40824829046386313,0.8164965809277261,0.0,0.5773502691896257,0.5773502691896257,0.5773502691896258,-0.0,-25160.728630746788,19918.33386925321,3002.2401192532125,1.0],"name":"Camera Node"},{"children":[0,1],"name":"Renderer Node"}],"scene":0,"scenes":[{"name":"Layer 0","nodes":[2]}]}