{"accessors":[{"bufferView":0,"byteOffset":0,"componentType":5126,"count":26123,"max":[-26945.0625,18135.0,1254.46875],"min":[-28224.9375,16855.03125,-25.0],"type":"VEC3"},{"bufferView":1,"byteOffset":0,"componentType":5125,"count":26123,"type":"SCALAR"}],"asset":{"generator":"VTK","version":"2.0"},"bufferViews":[{"buffer":0,"byteLength":313476,"byteOffset":0,"target":34962},{"buffer":1,"byteLength":104492,"byteOffset":0,"target":34963}],"buffers":[{"byteLength":313476,"uri":"data:application/octet-stream;base64,"},{"byteLength":104492,"uri":"data:application/octet-stream;base64,"}],"cameras":[{"perspective":{"aspectRatio":1.0298507462686568,"yfov":0.5235987755982988,"zfar":7122.756383026168,"znear":2033.8297979366807},"type":"perspective"}],"materials":[{"pbrMetallicRoughness":{"baseColorFactor":[1.0,1.0,1.0,0.3],"metallicFactor":0.0,"roughnessFactor":1.0}}],"meshes":[{"name":"mesh0","primitives":[{"attributes":{"POSITION":0},"indices":1,"material":0,"mode":0}]}],"nodes":[{"matrix":[0.0,0.0,1.0000000000000004,0.0,1.0000000000000004,0.0,0.0,0.0,0.0,1.0000000000000004,0.0,0.0,0.0,0.0,0.0,1.0],"mesh":0,"name":"mesh0"},{"camera":0,"matrix":[-0.7071067811865476,0.7071067811865476,0.0,-0.0,-0.4082482904638631,-0.4082482904638631,0.8164965809277261,0.0,0.5773502691896258,0.5773502691896258,0.5773502691896258,-0.0,-25112.672565160312,19967.343059839688,3087.061809839688,1.0],"name":"Camera Node"},{"children":[0,1],"name":"Renderer Node"}],"scene":0,"scenes":[{"name":"Layer 0","nodes":[2]}]}