{"accessors":[{"bufferView":0,"byteOffset":0,"componentType":5126,"count":11,"max":[-27237.46875,17959.625,542.28125],"min":[-27997.90625,16998.0,65.03125],"type":"VEC3"},{"bufferView":1,"byteOffset":0,"componentType":5125,"count":11,"type":"SCALAR"}],"asset":{"generator":"VTK","version":"2.0"},"bufferViews":[{"buffer":0,"byteLength":132,"byteOffset":0,"target":34962},{"buffer":1,"byteLength":44,"byteOffset":0,"target":34963}],"buffers":[{"byteLength":132,"uri":"data:application/octet-stream;base64,"},{"byteLength":44,"uri":"data:application/octet-stream;base64,"}],"cameras":[{"perspective":{"aspectRatio":1.0298507462686568,"yfov":0.5235987755982988,"zfar":4170.022963493507,"znear":1252.668933432482},"type":"perspective"}],"materials":[{"pbrMetallicRoughness":{"baseColorFactor":[1.0,1.0,1.0,0.3],"metallicFactor":0.0,"roughnessFactor":1.0}}],"meshes":[{"name":"mesh0","primitives":[{"attributes":{"POSITION":0},"indices":1,"material":0,"mode":0}]}],"nodes":[{"matrix":[0.0,0.0,1.0000000000000004,0.0,1.0000000000000004,0.0,0.0,0.0,0.0,1.0000000000000004,0.0,0.0,0.0,0.0,0.0,1.0],"mesh":0,"name":"mesh0"},{"camera":0,"matrix":[-0.7071067811865475,0.7071067811865475,0.0,-0.0,-0.40824829046386285,-0.40824829046386285,0.8164965809277261,0.0,0.5773502691896258,0.5773502691896258,0.5773502691896256,-0.0,-26150.346700246406,18946.153299753594,1770.9970497535933,1.0],"name":"Camera Node"},{"children":[0,1],"name":"Renderer Node"}],"scene":0,"scenes":[{"name":"Layer 0","nodes":[2]}]}