{"accessors":[{"bufferView":0,"byteOffset":0,"componentType":5126,"count":215,"max":[-26956.0,18108.6875,1250.65625],"min":[-28222.21875,16859.15625,-21.71875],"type":"VEC3"},{"bufferView":1,"byteOffset":0,"componentType":5125,"count":215,"type":"SCALAR"}],"asset":{"generator":"VTK","version":"2.0"},"bufferViews":[{"buffer":0,"byteLength":2580,"byteOffset":0,"target":34962},{"buffer":1,"byteLength":860,"byteOffset":0,"target":34963}],"buffers":[{"byteLength":2580,"uri":"data:application/octet-stream;base64,"},{"byteLength":860,"uri":"data:application/octet-stream;base64,"}],"cameras":[{"perspective":{"aspectRatio":1.0298507462686568,"yfov":0.5235987755982988,"zfar":7027.917668339052,"znear":2006.8359360474024},"type":"perspective"}],"materials":[{"pbrMetallicRoughness":{"baseColorFactor":[1.0,1.0,1.0,0.3],"metallicFactor":0.0,"roughnessFactor":1.0}}],"meshes":[{"name":"mesh0","primitives":[{"attributes":{"POSITION":0},"indices":1,"material":0,"mode":0}]}],"nodes":[{"matrix":[0.0,0.0,1.0000000000000004,0.0,1.0000000000000004,0.0,0.0,0.0,0.0,1.0000000000000004,0.0,0.0,0.0,0.0,0.0,1.0],"mesh":0,"name":"mesh0"},{"camera":0,"matrix":[-0.7071067811865476,0.7071067811865476,0.0,-0.0,-0.4082482904638629,-0.4082482904638629,0.8164965809277259,0.0,0.5773502691896257,0.5773502691896257,0.5773502691896257,-0.0,-25149.67295119894,19923.358298801064,3053.9051738010603,1.0],"name":"Camera Node"},{"children":[0,1],"name":"Renderer Node"}],"scene":0,"scenes":[{"name":"Layer 0","nodes":[2]}]}