{"accessors":[{"bufferView":0,"byteOffset":0,"componentType":5126,"count":17,"max":[-27202.90625,17986.40625,349.4375],"min":[-28222.5,16857.78125,-3.6875],"type":"VEC3"},{"bufferView":1,"byteOffset":0,"componentType":5125,"count":17,"type":"SCALAR"}],"asset":{"generator":"VTK","version":"2.0"},"bufferViews":[{"buffer":0,"byteLength":204,"byteOffset":0,"target":34962},{"buffer":1,"byteLength":68,"byteOffset":0,"target":34963}],"buffers":[{"byteLength":204,"uri":"data:application/octet-stream;base64,"},{"byteLength":68,"uri":"data:application/octet-stream;base64,"}],"cameras":[{"perspective":{"aspectRatio":1.0298507462686568,"yfov":0.5235987755982988,"zfar":4870.497270572023,"znear":1549.3555333683676},"type":"perspective"}],"materials":[{"pbrMetallicRoughness":{"baseColorFactor":[1.0,1.0,1.0,0.3],"metallicFactor":0.0,"roughnessFactor":1.0}}],"meshes":[{"name":"mesh0","primitives":[{"attributes":{"POSITION":0},"indices":1,"material":0,"mode":0}]}],"nodes":[{"matrix":[0.0,0.0,1.0000000000000004,0.0,1.0000000000000004,0.0,0.0,0.0,0.0,1.0000000000000004,0.0,0.0,0.0,0.0,0.0,1.0],"mesh":0,"name":"mesh0"},{"camera":0,"matrix":[-0.7071067811865475,0.7071067811865475,0.0,-0.0,-0.4082482904638631,-0.4082482904638631,0.8164965809277259,0.0,0.5773502691896257,0.5773502691896257,0.5773502691896258,-0.0,-25971.15446034276,19163.64241465723,1914.4236646572365,1.0],"name":"Camera Node"},{"children":[0,1],"name":"Renderer Node"}],"scene":0,"scenes":[{"name":"Layer 0","nodes":[2]}]}