{"accessors":[{"bufferView":0,"byteOffset":0,"componentType":5126,"count":179699,"max":[29370.625,56474.53125,3811.0],"min":[-36417.71875,-13824.65625,-3856.21875],"type":"VEC3"},{"bufferView":1,"byteOffset":0,"componentType":5125,"count":179699,"type":"SCALAR"}],"asset":{"generator":"VTK","version":"2.0"},"bufferViews":[{"buffer":0,"byteLength":2156388,"byteOffset":0,"target":34962},{"buffer":1,"byteLength":718796,"byteOffset":0,"target":34963}],"buffers":[{"byteLength":2156388,"uri":"data:application/octet-stream;base64,"},{"byteLength":718796,"uri":"data:application/octet-stream;base64,"}],"cameras":[{"perspective":{"aspectRatio":1.0298507462686568,"yfov":0.5235987755982988,"zfar":293342.3474581782,"znear":102142.19265609437},"type":"perspective"}],"materials":[{"pbrMetallicRoughness":{"baseColorFactor":[1.0,1.0,1.0,0.3],"metallicFactor":0.0,"roughnessFactor":1.0}}],"meshes":[{"name":"mesh0","primitives":[{"attributes":{"POSITION":0},"indices":1,"material":0,"mode":0}]}],"nodes":[{"matrix":[0.0,0.0,1.0000000000000004,0.0,1.0000000000000004,0.0,0.0,0.0,0.0,1.0000000000000004,0.0,0.0,0.0,0.0,0.0,1.0],"mesh":0,"name":"mesh0"},{"camera":0,"matrix":[-0.7071067811865476,0.7071067811865476,0.0,-0.0,-0.40824829046386296,-0.40824829046386296,0.8164965809277259,0.0,0.5773502691896257,0.5773502691896257,0.5773502691896257,-0.0,104204.21188824718,129052.69626324718,107705.14938824718,1.0],"name":"Camera Node"},{"children":[0,1],"name":"Renderer Node"}],"scene":0,"scenes":[{"name":"Layer 0","nodes":[2]}]}