{"accessors":[{"bufferView":0,"byteOffset":0,"componentType":5126,"count":4322,"max":[2156.03125,5835.53125,348.71875],"min":[-1089.9375,-1194.625,-325.15625],"type":"VEC3"},{"bufferView":1,"byteOffset":0,"componentType":5125,"count":4322,"type":"SCALAR"}],"asset":{"generator":"VTK","version":"2.0"},"bufferViews":[{"buffer":0,"byteLength":51864,"byteOffset":0,"target":34962},{"buffer":1,"byteLength":17288,"byteOffset":0,"target":34963}],"buffers":[{"byteLength":51864,"uri":"data:application/octet-stream;base64,"},{"byteLength":17288,"uri":"data:application/octet-stream;base64,"}],"cameras":[{"perspective":{"aspectRatio":1.3333333333333333,"yfov":0.5235987755982988,"zfar":1000.01,"znear":0.01},"type":"perspective"}],"materials":[{"pbrMetallicRoughness":{"baseColorFactor":[0.7529411764705882,0.7529411764705882,0.7529411764705882,1.0],"metallicFactor":0.0,"roughnessFactor":1.0}}],"meshes":[{"name":"mesh0","primitives":[{"attributes":{"POSITION":0},"indices":1,"material":0,"mode":0}]}],"nodes":[{"matrix":[0.0,0.0,1.0000000000000004,0.0,1.0000000000000004,0.0,0.0,0.0,0.0,1.0000000000000004,0.0,0.0,0.0,0.0,0.0,1.0],"mesh":0,"name":"mesh0"},{"camera":0,"matrix":[1.0,-0.0,0.0,-0.0,-0.0,1.0,-0.0,0.0,0.0,-0.0,1.0,-0.0,-0.0,0.0,1.0,1.0],"name":"Camera Node"},{"children":[0,1],"name":"Renderer Node"}],"scene":0,"scenes":[{"name":"Layer 0","nodes":[2]}]}