{"accessors":[{"bufferView":0,"byteOffset":0,"componentType":5126,"count":63,"max":[6.84375,-253.875,-65.125],"min":[-169.71875,-424.3125,-239.25],"type":"VEC3"},{"bufferView":1,"byteOffset":0,"componentType":5125,"count":63,"type":"SCALAR"}],"asset":{"generator":"VTK","version":"2.0"},"bufferViews":[{"buffer":0,"byteLength":756,"byteOffset":0,"target":34962},{"buffer":1,"byteLength":252,"byteOffset":0,"target":34963}],"buffers":[{"byteLength":756,"uri":"data:application/octet-stream;base64,"},{"byteLength":252,"uri":"data:application/octet-stream;base64,"}],"cameras":[{"perspective":{"aspectRatio":1.3333333333333333,"yfov":0.5235987755982988,"zfar":1000.01,"znear":0.01},"type":"perspective"}],"materials":[{"pbrMetallicRoughness":{"baseColorFactor":[0.10196078431372549,0.9019607843137255,0.2,1.0],"metallicFactor":0.0,"roughnessFactor":1.0}}],"meshes":[{"name":"mesh0","primitives":[{"attributes":{"POSITION":0},"indices":1,"material":0,"mode":0}]}],"nodes":[{"matrix":[0.0,0.0,1.0000000000000004,0.0,1.0000000000000004,0.0,0.0,0.0,0.0,1.0000000000000004,0.0,0.0,0.0,0.0,0.0,1.0],"mesh":0,"name":"mesh0"},{"camera":0,"matrix":[1.0,-0.0,0.0,-0.0,-0.0,1.0,-0.0,0.0,0.0,-0.0,1.0,-0.0,-0.0,0.0,1.0,1.0],"name":"Camera Node"},{"children":[0,1],"name":"Renderer Node"}],"scene":0,"scenes":[{"name":"Layer 0","nodes":[2]}]}